<?xml version="1.0" encoding="UTF-8"?>
<svg width="700pt" height="700pt" version="1.1" viewBox="75 0 600 600" xmlns="http://www.w3.org/2000/svg" xmlns:xlink="http://www.w3.org/1999/xlink" fill="#ff0000">
   <path d="m617.03 455.66c4.5195 4.5586 7.0586 10.715 7.0586 17.137 0 6.418-2.5391 12.578-7.0586 17.133l-57.113 57.098c-4.5508 4.5391-10.711 7.0859-17.137 7.0859s-12.586-2.5469-17.137-7.0859l-168.09-168.11c-2-2.0039-4.7188-3.1289-7.5508-3.1289s-5.5508 1.125-7.5508 3.1289l-168.11 168.11c-4.5469 4.5391-10.711 7.0859-17.137 7.0859-6.4219 0-12.586-2.5469-17.133-7.0859l-57.098-57.113c-4.5391-4.5508-7.0859-10.711-7.0859-17.137s2.5469-12.586 7.0859-17.137l168.11-168.09c2.0039-2 3.1289-4.7188 3.1289-7.5508s-1.125-5.5508-3.1289-7.5508l-168.11-168.11c-4.5391-4.5469-7.0859-10.711-7.0859-17.137 0-6.4219 2.5469-12.586 7.0859-17.133l57.113-57.098c4.5508-4.5391 10.711-7.0859 17.137-7.0859s12.586 2.5469 17.137 7.0859l168.09 168.11c2 2.0039 4.7188 3.1289 7.5508 3.1289s5.5508-1.125 7.5508-3.1289l168.11-168.11c4.5469-4.5391 10.711-7.0859 17.137-7.0859 6.4219 0 12.586 2.5469 17.133 7.0859l57.098 57.113c4.5391 4.5508 7.0859 10.711 7.0859 17.137s-2.5469 12.586-7.0859 17.137l-168.11 168.09c-2.0039 2-3.1289 4.7188-3.1289 7.5508s1.125 5.5508 3.1289 7.5508z" />
</svg>