<?xml version="1.0" encoding="UTF-8"?>
<svg width="1200pt" height="1200pt" version="1.1" viewBox="0 0 1200 1200" xmlns="http://www.w3.org/2000/svg" fill="#808080">
   <path d="m1015.6 199.06v313.81c-0.023437 13.488-7.2344 25.941-18.918 32.68-11.684 6.7344-26.074 6.7344-37.758 0-11.688-6.7383-18.895-19.191-18.918-32.68v-222.55l-147.48 147.48c5.8945 13.926 8.9219 28.895 8.9023 44.02v379.92c-0.035156 30.062-11.992 58.887-33.25 80.145-21.258 21.258-50.078 33.215-80.145 33.25h-379.92c-30.066-0.035156-58.891-11.992-80.152-33.25-21.262-21.258-33.223-50.078-33.262-80.145v-379.92c0.039062-30.066 12-58.891 33.262-80.148 21.262-21.258 50.086-33.215 80.152-33.246h379.92c18.676-0.019532 37.062 4.5977 53.512 13.438l145.01-145.01h-222.57c-10.035 0.015625-19.664-3.957-26.77-11.047-7.1016-7.0898-11.094-16.715-11.094-26.75 0-10.039 3.9922-19.66 11.094-26.754 7.1055-7.0898 16.734-11.062 26.77-11.047h313.82c10.023 0 19.641 3.9805 26.73 11.07 7.0859 7.0898 11.07 16.703 11.066 26.73zm-289.77 305.44-194.01 194.01c-9.5547 9.5039-23.453 13.199-36.469 9.7031-13.016-3.5-23.184-13.664-26.688-26.68-3.5039-13.016 0.1875-26.91 9.6875-36.473l201.03-201.03h-371.27c-10.02 0.011719-19.629 3.9961-26.715 11.082-7.0859 7.0859-11.07 16.691-11.082 26.715v379.92c0.011719 10.02 3.9961 19.629 11.082 26.715 7.0859 7.082 16.695 11.07 26.715 11.082h379.92c10.02-0.011719 19.629-4 26.715-11.082 7.0859-7.0859 11.07-16.695 11.082-26.715z" />
</svg>