<?xml version="1.0" encoding="UTF-8"?>
<svg width="800" height="800" version="1.1" viewBox="0 0 700 550" xmlns="http://www.w3.org/2000/svg" fill="#fff">
   <path d="m116.67 186.28c-0.003907 0.24219-0.003907 0.48438 0 0.73047v209.66c0 38.66 31.34 70 70 70h326.66c38.664 0 70-31.34 70-70v-209.71c0.003907-0.21094 0.003907-0.42188 0-0.63281v-22.996c0-38.66-31.336-70-70-70h-326.66c-38.66 0-70 31.34-70 70zm46.664-22.949c0-12.887 10.449-23.332 23.336-23.332h326.66c12.887 0 23.336 10.445 23.336 23.332v10.848l-173.73 115.81c-7.8359 5.2266-18.047 5.2266-25.883 0l-173.73-115.81zm373.34 66.934v166.4c0 12.887-10.449 23.332-23.336 23.332h-326.66c-12.887 0-23.336-10.445-23.336-23.332v-166.4l147.84 98.559c23.512 15.672 54.145 15.672 77.656 0z" fill-rule="evenodd" />
</svg>